HIERARCHY
ROOT Hips
{
  OFFSET 5.72205e-005 65.662 3.42586
  CHANNELS 6 Xposition Yposition Zposition Zrotation Xrotation Yrotation
  JOINT Chest
  {
    OFFSET 0 8.7983 -4.7612
    CHANNELS 6 Xposition Yposition Zposition Zrotation Xrotation Yrotation
    JOINT Chest2
    {
      OFFSET 0 8.0291 0.4195
      CHANNELS 6 Xposition Yposition Zposition Zrotation Xrotation Yrotation
      JOINT Chest3
      {
        OFFSET 0 9.9351 -2.2114
        CHANNELS 6 Xposition Yposition Zposition Zrotation Xrotation Yrotation
        JOINT Neck
        {
          OFFSET 0 22.3885 -0.4656
          CHANNELS 6 Xposition Yposition Zposition Zrotation Xrotation Yrotation
          JOINT Head
          {
            OFFSET -0.0001 12.643 3.4389
            CHANNELS 6 Xposition Yposition Zposition Zrotation Xrotation Yrotation
            End Site
            {
              OFFSET 0.0001 17.6655 0.5274
            }
          }
        }
        JOINT LeftCollar
        {
          OFFSET 2.2603 21.606 7.4023
          CHANNELS 6 Xposition Yposition Zposition Zrotation Xrotation Yrotation
          JOINT LeftShoulder
          {
            OFFSET 13.5163 -1.1332 -5.0146
            CHANNELS 6 Xposition Yposition Zposition Zrotation Xrotation Yrotation
            JOINT LeftElbow
            {
              OFFSET -0.0995 -28.05 -0.2431
              CHANNELS 6 Xposition Yposition Zposition Zrotation Xrotation Yrotation
              JOINT LeftWrist
              {
                OFFSET 0.0679 -23.3996 -0.1402
                CHANNELS 6 Xposition Yposition Zposition Zrotation Xrotation Yrotation
                JOINT LeftFinger1
                {
                  OFFSET 0.7932 -9.069 2.5189
                  CHANNELS 6 Xposition Yposition Zposition Zrotation Xrotation Yrotation
                  JOINT LeftFinger11
                  {
                    OFFSET -0.8272 -3.3923 0.5977
                    CHANNELS 6 Xposition Yposition Zposition Zrotation Xrotation Yrotation
                    JOINT LeftFinger12
                    {
                      OFFSET -0.5649 -2.3158 0.4082
                      CHANNELS 6 Xposition Yposition Zposition Zrotation Xrotation Yrotation
                      End Site
                      {
                        OFFSET -0.4919 -1.6479 0.2673
                      }
                    }
                  }
                }
                JOINT LeftFinger2
                {
                  OFFSET 0.9159 -9.2044 0.2193
                  CHANNELS 6 Xposition Yposition Zposition Zrotation Xrotation Yrotation
                  JOINT LeftFinger21
                  {
                    OFFSET 0.0117 -4.1944 -0.0248
                    CHANNELS 6 Xposition Yposition Zposition Zrotation Xrotation Yrotation
                    JOINT LeftFinger22
                    {
                      OFFSET 0.0071 -2.3249 -0.0142
                      CHANNELS 6 Xposition Yposition Zposition Zrotation Xrotation Yrotation
                      End Site
                      {
                        OFFSET -0.1475 -2.0882 0.0028
                      }
                    }
                  }
                }
                JOINT LeftFinger3
                {
                  OFFSET 0.6113 -8.7231 -2.0637
                  CHANNELS 6 Xposition Yposition Zposition Zrotation Xrotation Yrotation
                  JOINT LeftFinger31
                  {
                    OFFSET -0.1927 -3.8059 -0.2383
                    CHANNELS 6 Xposition Yposition Zposition Zrotation Xrotation Yrotation
                    JOINT LeftFinger32
                    {
                      OFFSET -0.1091 -2.1688 -0.1362
                      CHANNELS 6 Xposition Yposition Zposition Zrotation Xrotation Yrotation
                      End Site
                      {
                        OFFSET -0.2358 -1.9176 -0.0906
                      }
                    }
                  }
                }
                JOINT LeftFinger4
                {
                  OFFSET -0.6151 -8.0947 -3.5641
                  CHANNELS 6 Xposition Yposition Zposition Zrotation Xrotation Yrotation
                  JOINT LeftFinger41
                  {
                    OFFSET -0.4882 -2.341 -0.6462
                    CHANNELS 6 Xposition Yposition Zposition Zrotation Xrotation Yrotation
                    JOINT LeftFinger42
                    {
                      OFFSET -0.3575 -1.7167 -0.4742
                      CHANNELS 6 Xposition Yposition Zposition Zrotation Xrotation Yrotation
                      End Site
                      {
                        OFFSET -0.4187 -1.5237 -0.3496
                      }
                    }
                  }
                }
                JOINT LeftFinger0
                {
                  OFFSET -1.42 -1.8761 1.4223
                  CHANNELS 6 Xposition Yposition Zposition Zrotation Xrotation Yrotation
                  JOINT LeftFinger01
                  {
                    OFFSET -1.1471 -3.4929 2.6334
                    CHANNELS 6 Xposition Yposition Zposition Zrotation Xrotation Yrotation
                    JOINT LeftFinger02
                    {
                      OFFSET -0.823 -2.3 1.6571
                      CHANNELS 6 Xposition Yposition Zposition Zrotation Xrotation Yrotation
                      End Site
                      {
                        OFFSET -0.5822 -1.6914 1.1582
                      }
                    }
                  }
                }
              }
            }
          }
        }
        JOINT RightCollar
        {
          OFFSET -2.2603 21.606 7.4023
          CHANNELS 6 Xposition Yposition Zposition Zrotation Xrotation Yrotation
          JOINT RightShoulder
          {
            OFFSET -13.5187 -1.1334 -5.0155
            CHANNELS 6 Xposition Yposition Zposition Zrotation Xrotation Yrotation
            JOINT RightElbow
            {
              OFFSET 0.0994 -28.0499 -0.2431
              CHANNELS 6 Xposition Yposition Zposition Zrotation Xrotation Yrotation
              JOINT RightWrist
              {
                OFFSET -0.0679 -23.3996 -0.1402
                CHANNELS 6 Xposition Yposition Zposition Zrotation Xrotation Yrotation
                JOINT RightFinger1
                {
                  OFFSET -0.7932 -9.0691 2.5189
                  CHANNELS 6 Xposition Yposition Zposition Zrotation Xrotation Yrotation
                  JOINT RightFinger11
                  {
                    OFFSET 0.8272 -3.3923 0.5977
                    CHANNELS 6 Xposition Yposition Zposition Zrotation Xrotation Yrotation
                    JOINT RightFinger12
                    {
                      OFFSET 0.565 -2.3158 0.4082
                      CHANNELS 6 Xposition Yposition Zposition Zrotation Xrotation Yrotation
                      End Site
                      {
                        OFFSET 0.4919 -1.6479 0.2673
                      }
                    }
                  }
                }
                JOINT RightFinger2
                {
                  OFFSET -0.916 -9.2044 0.2193
                  CHANNELS 6 Xposition Yposition Zposition Zrotation Xrotation Yrotation
                  JOINT RightFinger21
                  {
                    OFFSET -0.0117 -4.1944 -0.0248
                    CHANNELS 6 Xposition Yposition Zposition Zrotation Xrotation Yrotation
                    JOINT RightFinger22
                    {
                      OFFSET -0.0071 -2.3249 -0.0142
                      CHANNELS 6 Xposition Yposition Zposition Zrotation Xrotation Yrotation
                      End Site
                      {
                        OFFSET 0.1475 -2.0882 0.0028
                      }
                    }
                  }
                }
                JOINT RightFinger3
                {
                  OFFSET -0.6113 -8.7231 -2.0637
                  CHANNELS 6 Xposition Yposition Zposition Zrotation Xrotation Yrotation
                  JOINT RightFinger31
                  {
                    OFFSET 0.1927 -3.8059 -0.2383
                    CHANNELS 6 Xposition Yposition Zposition Zrotation Xrotation Yrotation
                    JOINT RightFinger32
                    {
                      OFFSET 0.1091 -2.1688 -0.1362
                      CHANNELS 6 Xposition Yposition Zposition Zrotation Xrotation Yrotation
                      End Site
                      {
                        OFFSET 0.2358 -1.9176 -0.0906
                      }
                    }
                  }
                }
                JOINT RightFinger4
                {
                  OFFSET 0.6151 -8.0947 -3.564
                  CHANNELS 6 Xposition Yposition Zposition Zrotation Xrotation Yrotation
                  JOINT RightFinger41
                  {
                    OFFSET 0.4882 -2.341 -0.6462
                    CHANNELS 6 Xposition Yposition Zposition Zrotation Xrotation Yrotation
                    JOINT RightFinger42
                    {
                      OFFSET 0.3574 -1.7166 -0.4742
                      CHANNELS 6 Xposition Yposition Zposition Zrotation Xrotation Yrotation
                      End Site
                      {
                        OFFSET 0.4187 -1.5237 -0.3496
                      }
                    }
                  }
                }
                JOINT RightFinger0
                {
                  OFFSET 1.4199 -1.8761 1.4221
                  CHANNELS 6 Xposition Yposition Zposition Zrotation Xrotation Yrotation
                  JOINT RightFinger01
                  {
                    OFFSET 1.1472 -3.4929 2.6336
                    CHANNELS 6 Xposition Yposition Zposition Zrotation Xrotation Yrotation
                    JOINT RightFinger02
                    {
                      OFFSET 0.8229 -2.3 1.6571
                      CHANNELS 6 Xposition Yposition Zposition Zrotation Xrotation Yrotation
                      End Site
                      {
                        OFFSET 0.5822 -1.6914 1.1582
                      }
                    }
                  }
                }
              }
            }
          }
        }
      }
    }
  }
  JOINT RightHip
  {
    OFFSET -9.412 3.9771 -0.7758
    CHANNELS 6 Xposition Yposition Zposition Zrotation Xrotation Yrotation
    JOINT RightKnee
    {
      OFFSET -0.7531 -40.938 0
      CHANNELS 6 Xposition Yposition Zposition Zrotation Xrotation Yrotation
      JOINT RightAnkle
      {
        OFFSET 0 -40.1986 0
        CHANNELS 6 Xposition Yposition Zposition Zrotation Xrotation Yrotation
        JOINT RightToe
        {
          OFFSET 0 -4.4182 9.239
          CHANNELS 6 Xposition Yposition Zposition Zrotation Xrotation Yrotation
          End Site
          {
            OFFSET 0 0 6.1981
          }
        }
      }
    }
  }
  JOINT LeftHip
  {
    OFFSET 9.4119 3.9773 -0.7758
    CHANNELS 6 Xposition Yposition Zposition Zrotation Xrotation Yrotation
    JOINT LeftKnee
    {
      OFFSET 0.7532 -40.9383 0
      CHANNELS 6 Xposition Yposition Zposition Zrotation Xrotation Yrotation
      JOINT LeftAnkle
      {
        OFFSET 0 -40.1986 0
        CHANNELS 6 Xposition Yposition Zposition Zrotation Xrotation Yrotation
        JOINT LeftToe
        {
          OFFSET 0 -4.4182 9.239
          CHANNELS 6 Xposition Yposition Zposition Zrotation Xrotation Yrotation
          End Site
          {
            OFFSET 0 0 6.1981
          }
        }
      }
    }
  }
}
MOTION
Frames:	4
Frame Time:	0.0333333
-0.00338592 65.6126 47.3689 180 75.0041 -180 -8.67362e-019 8.7983 -4.7612 -0.3781 -4.12641 -0.700347 0 8.0291 0.4195 -0.810054 -8.24778 -1.43366 -4.44089e-016 9.9351 -2.2114 -0.810056 -8.24781 -1.43366 -8.88179e-016 22.3885 -0.4656 -1.45514e-006 0.0150407 -3.9234e-006 -0.0001 12.643 3.4389 -1.88802e-006 0.0192525 -1.48695e-006 2.2603 21.606 7.4023 10.4773 8.53605 -57.5022 13.5163 -1.1332 -5.0146 83.8957 -10.2475 39.5066 -0.0995 -28.05 -0.2431 10.5371 -28.4646 1.59965 0.0679 -23.3996 -0.1402 37.8217 -13.2966 10.0005 0.7932 -9.069 2.5189 3.18055e-015 0 -1.11319e-014 -0.8272 -3.3923 0.5977 9.54166e-015 9.54166e-015 -7.95139e-015 -0.5649 -2.3158 0.4082 6.36111e-015 0 -4.77083e-015 0.9159 -9.2044 0.2193 3.18055e-015 0 -1.11319e-014 0.0117 -4.1944 -0.0248 -0.012798 0.00232512 9.81547e-005 0.0071 -2.3249 -0.0142 9.54166e-015 3.18055e-015 1.59028e-015 0.6113 -8.7231 -2.0637 3.18055e-015 0 -1.11319e-014 -0.1927 -3.8059 -0.2383 -0.0160621 0.00300109 0.00086078 -0.1091 -2.1688 -0.1362 3.18055e-015 -3.18055e-015 3.18055e-015 -0.6151 -8.0947 -3.5641 3.18055e-015 0 -1.11319e-014 -0.4882 -2.341 -0.6462 -0.0127104 0.00315806 0.00286254 -0.3575 -1.7167 -0.4742 -0 0 1.59028e-015 -1.42 -1.8761 1.4223 3.18055e-015 0 -1.11319e-014 -1.1471 -3.4929 2.6334 9.54166e-015 9.54166e-015 -7.95139e-015 -0.823 -2.3 1.6571 6.36111e-015 0 -4.77083e-015 -2.2603 21.606 7.4023 -11.0884 8.02137 51.6415 -13.5187 -1.1334 -5.0155 -82.8585 -15.5382 -38.8362 0.0994 -28.0499 -0.2431 -11.037 -29.9839 -2.54941 -0.0679 -23.3996 -0.1402 -37.7735 -12.3429 -10.1667 -0.7932 -9.06911 2.5189 -0 0 1.59028e-015 0.8272 -3.3923 0.5977 0 0 -1.59028e-015 0.565 -2.3158 0.4082 -3.53113e-031 -6.36111e-015 -3.18055e-015 -0.916 -9.20441 0.2193 -0 0 1.59028e-015 -0.0117 -4.1944 -0.0248 0.0129768 0.00232001 -8.43192e-005 -0.0071 -2.3249 -0.0142 1.27222e-014 -3.18055e-015 9.54166e-015 -0.6113 -8.7231 -2.0637 -0 0 1.59028e-015 0.1927 -3.8059 -0.2383 0.016347 0.00304724 -0.000876065 0.1091 -2.1688 -0.1362 -4.66589e-006 -2.8301e-007 1.96975e-008 0.6151 -8.0947 -3.564 -0 0 1.59028e-015 0.4882 -2.341 -0.6462 0.0146248 0.00368191 -0.00327133 0.3574 -1.7166 -0.4742 -1.13935e-006 -8.2815e-007 -2.03189e-006 1.4199 -1.8761 1.4221 -0 0 1.59028e-015 1.1472 -3.4929 2.6336 0 0 -1.59028e-015 0.8229 -2.3 1.6571 -3.53113e-031 -6.36111e-015 -3.18055e-015 -9.412 3.9771 -0.7758 -165.403 -76.2825 -164.288 -0.7531 -40.938 7.10543e-015 4.84728 7.69446 -1.53827 1.77636e-015 -40.1986 7.10543e-015 -6.12603 31.7824 -3.33348 0 -4.4182 9.239 7.95139e-016 9.54166e-015 1.39149e-015 9.4119 3.9773 -0.7758 164.986 -75.3642 165.713 0.7532 -40.9383 7.10543e-015 -5.77228 9.80233 1.70106 0 -40.1986 0 6.30824 32.536 3.16844 0 -4.4182 9.239 -7.97319e-007 -1.18154e-005 -1.46792e-006 
-0.00338591 65.6126 47.4772 180 75.0041 -180 0 8.7983 -4.7612 -0.37612 -3.9715 -0.70141 0 8.0291 0.4195 -0.803989 -7.938 -1.43419 8.88179e-016 9.9351 -2.2114 -0.803992 -7.93802 -1.4342 0 22.3885 -0.4656 -6.88857e-006 0.0139726 -1.42779e-005 -0.0001 12.643 3.4389 7.95326e-016 0.0179663 -5.96354e-016 2.2603 21.606 7.4023 10.6389 8.05332 -57.3977 13.5163 -1.1332 -5.0146 83.8959 -10.2474 39.5066 -0.0995 -28.05 -0.2431 10.5369 -28.4645 1.59966 0.0679 -23.3996 -0.1402 38.0711 -13.2544 10.1938 0.7932 -9.069 2.5189 -9.54166e-015 -3.18055e-015 -3.18055e-015 -0.8272 -3.3923 0.5977 3.53113e-031 -3.18055e-015 6.36111e-015 -0.5649 -2.3158 0.4082 -3.18055e-015 -3.18055e-015 -0 0.9159 -9.2044 0.2193 -9.54166e-015 -3.18055e-015 -3.18055e-015 0.0117 -4.1944 -0.0248 -0.0128422 0.00234096 8.85685e-005 0.0071 -2.3249 -0.0142 -9.54166e-015 3.18055e-015 -1.59028e-015 0.6113 -8.7231 -2.0637 -9.54166e-015 -3.18055e-015 -3.18055e-015 -0.1927 -3.8059 -0.2383 -0.0159945 0.00299886 0.000845402 -0.1091 -2.1688 -0.1362 -3.18055e-015 0 4.77083e-015 -0.6151 -8.0947 -3.5641 -9.54166e-015 -3.18055e-015 -3.18055e-015 -0.4882 -2.341 -0.6462 -0.0125854 0.00311617 0.0028158 -0.3575 -1.7167 -0.4742 -6.36111e-015 0 -6.36111e-015 -1.42 -1.8761 1.4223 -9.54166e-015 -3.18055e-015 -3.18055e-015 -1.1471 -3.4929 2.6334 3.53113e-031 -3.18055e-015 6.36111e-015 -0.823 -2.3 1.6571 -3.18055e-015 -3.18055e-015 -0 -2.2603 21.606 7.4023 -11.2378 7.56002 51.5018 -13.5187 -1.1334 -5.0155 -82.8586 -15.5382 -38.8363 0.0994 -28.0499 -0.2431 -11.0369 -29.9839 -2.54938 -0.0679 -23.3996 -0.1402 -38.0367 -12.243 -10.3405 -0.7932 -9.0691 2.5189 -9.54166e-015 6.36111e-015 -0 0.8272 -3.3923 0.5977 -3.18055e-015 9.54166e-015 -0 0.565 -2.3158 0.4082 -6.36111e-015 3.18055e-015 -6.36111e-015 -0.916 -9.2044 0.2193 -9.54166e-015 6.36111e-015 -0 -0.0117 -4.1944 -0.0248 0.01296 0.00231185 -9.28701e-005 -0.0071 -2.3249 -0.0142 -2.08179e-006 1.79089e-006 2.54543e-006 -0.6113 -8.7231 -2.0637 -9.54166e-015 6.36111e-015 -0 0.1927 -3.8059 -0.2383 0.0163464 0.00303839 -0.000881447 0.1091 -2.1688 -0.1362 0 3.18055e-015 -0 0.6151 -8.0947 -3.564 -9.54166e-015 6.36111e-015 -0 0.4882 -2.341 -0.6462 0.0146023 0.00368591 -0.00327465 0.3574 -1.7166 -0.4742 -3.18055e-015 -7.06081e-007 -1.59028e-015 1.4199 -1.8761 1.4221 -9.54166e-015 6.36111e-015 -0 1.1472 -3.4929 2.6336 -3.18055e-015 9.54166e-015 -0 0.8229 -2.3 1.6571 -6.36111e-015 3.18055e-015 -6.36111e-015 -9.412 3.9771 -0.7758 -165.403 -76.2825 -164.288 -0.7531 -40.938 7.10543e-015 4.84728 7.69446 -1.53827 0 -40.1986 7.10543e-015 -6.12603 31.7824 -3.33348 0 -4.4182 9.239 7.79477e-007 3.2973e-008 3.96443e-007 9.4119 3.9773 -0.7758 164.951 -75.3803 165.679 0.7532 -40.9383 0 -5.77153 9.75847 1.69842 0 -40.1986 0 6.39134 32.455 3.07015 -8.88178e-016 -4.4182 9.239 -7.67113e-007 5.50715e-008 -4.22215e-007 
-0.00338592 65.6126 47.5855 180 75.0041 -180 4.33681e-019 8.7983 -4.7612 -0.374083 -3.81679 -0.7024 2.22045e-016 8.0291 0.4195 -0.797815 -7.62861 -1.43461 -4.44089e-016 9.9351 -2.2114 -0.797815 -7.62862 -1.43461 0 22.3885 -0.4656 2.18319e-006 0.013094 5.41556e-006 -0.0001 12.643 3.4389 1.49319e-008 0.016686 2.12572e-007 2.2603 21.606 7.4023 10.8013 7.57108 -57.2919 13.5163 -1.1332 -5.0146 83.8957 -10.2475 39.5066 -0.0995 -28.05 -0.2431 10.5371 -28.4646 1.59965 0.0679 -23.3996 -0.1402 38.3201 -13.2113 10.3869 0.7932 -9.069 2.5189 3.53113e-031 -6.36111e-015 3.18055e-015 -0.8272 -3.3923 0.5977 2.86224e-006 1.27847e-006 1.18335e-006 -0.5649 -2.3158 0.4082 -2.86224e-006 -1.27847e-006 -1.18335e-006 0.9159 -9.2044 0.2193 3.53113e-031 -6.36111e-015 3.18055e-015 0.0117 -4.1944 -0.0248 -0.0128508 0.0023339 9.12222e-005 0.0071 -2.3249 -0.0142 -2.86187e-006 -5.70407e-008 -1.18347e-006 0.6113 -8.7231 -2.0637 3.53113e-031 -6.36111e-015 3.18055e-015 -0.1927 -3.8059 -0.2383 -0.0160314 0.00300666 0.000867066 -0.1091 -2.1688 -0.1362 9.54166e-015 -3.18055e-015 -0 -0.6151 -8.0947 -3.5641 3.53113e-031 -6.36111e-015 3.18055e-015 -0.4882 -2.341 -0.6462 -0.0125502 0.00311552 0.0028193 -0.3575 -1.7167 -0.4742 3.18055e-015 0 -0 -1.42 -1.8761 1.4223 3.53113e-031 -6.36111e-015 3.18055e-015 -1.1471 -3.4929 2.6334 2.86224e-006 1.27847e-006 1.18335e-006 -0.823 -2.3 1.6571 -2.86224e-006 -1.27847e-006 -1.18335e-006 -2.2603 21.606 7.4023 -11.3882 7.09923 51.3611 -13.5187 -1.1334 -5.0155 -82.8586 -15.5382 -38.8363 0.0994 -28.0499 -0.2431 -11.0369 -29.9839 -2.54936 -0.0679 -23.3996 -0.1402 -38.2994 -12.1423 -10.5139 -0.7932 -9.0691 2.5189 -6.36111e-015 -3.18055e-015 -1.59028e-015 0.8272 -3.3923 0.5977 -3.18055e-015 -3.18055e-015 -4.77083e-015 0.565 -2.3158 0.4082 -3.53113e-031 -6.36111e-015 -3.18055e-015 -0.916 -9.2044 0.2193 -6.36111e-015 -3.18055e-015 -1.59028e-015 -0.0117 -4.1944 -0.0248 0.0129436 0.00232001 -7.44444e-005 -0.0071 -2.3249 -0.0142 3.18055e-015 0 -0 -0.6113 -8.7231 -2.0637 -6.36111e-015 -3.18055e-015 -1.59028e-015 0.1927 -3.8059 -0.2383 0.0163436 0.00303782 -0.000872234 0.1091 -2.1688 -0.1362 3.18055e-015 -3.18055e-015 7.95139e-015 0.6151 -8.0947 -3.564 -6.36111e-015 -3.18055e-015 -1.59028e-015 0.4882 -2.341 -0.6462 0.0146917 0.00369225 -0.00327555 0.3574 -1.7166 -0.4742 -6.36111e-015 0 -1.11319e-014 1.4199 -1.8761 1.4221 -6.36111e-015 -3.18055e-015 -1.59028e-015 1.1472 -3.4929 2.6336 -3.18055e-015 -3.18055e-015 -4.77083e-015 0.8229 -2.3 1.6571 -3.53113e-031 -6.36111e-015 -3.18055e-015 -9.412 3.9771 -0.7758 -165.403 -76.2825 -164.288 -0.7531 -40.938 7.10543e-015 4.84728 7.69446 -1.53827 1.77636e-015 -40.1986 0 -6.12603 31.7824 -3.33348 0 -4.4182 9.239 -4.60108e-007 -2.71553e-008 -1.18038e-007 9.4119 3.9773 -0.7758 164.916 -75.3964 165.644 0.7532 -40.9383 0 -5.77076 9.71488 1.69571 0 -40.1986 0 6.47413 32.3737 2.97215 1.77636e-015 -4.4182 9.239 -1.59028e-015 6.36111e-015 3.97569e-016 
-0.0033859 65.6126 47.6938 180 75.0041 -180 0 8.7983 -4.7612 -0.371982 -3.66227 -0.703307 0 8.0291 0.4195 -0.791521 -7.31962 -1.43489 4.44089e-016 9.9351 -2.2114 -0.791524 -7.31965 -1.43489 -8.88179e-016 22.3885 -0.4656 4.69374e-006 0.0121239 9.56111e-006 -0.0001 12.643 3.4389 6.62946e-007 0.0153839 3.8778e-007 2.2603 21.606 7.4023 10.9643 7.08911 -57.1849 13.5163 -1.1332 -5.0146 83.8958 -10.2475 39.5066 -0.0995 -28.05 -0.2431 10.5371 -28.4646 1.59968 0.0679 -23.3996 -0.1402 38.5691 -13.1674 10.5797 0.7932 -9.069 2.5189 -4.29115e-006 1.35541e-006 -1.77628e-006 -0.8272 -3.3923 0.5977 3.18055e-015 9.54166e-015 -1.59028e-015 -0.5649 -2.3158 0.4082 3.18055e-015 0 -1.59028e-015 0.9159 -9.2044 0.2193 -4.29115e-006 1.35541e-006 -1.77628e-006 0.0117 -4.1944 -0.0248 -0.0127888 0.0023274 8.12621e-005 0.0071 -2.3249 -0.0142 1.83766e-006 3.82494e-006 -1.33221e-006 0.6113 -8.7231 -2.0637 -4.29115e-006 1.35541e-006 -1.77628e-006 -0.1927 -3.8059 -0.2383 -0.015995 0.00298387 0.000857279 -0.1091 -2.1688 -0.1362 6.36111e-015 6.36111e-015 -0 -0.6151 -8.0947 -3.5641 -4.29115e-006 1.35541e-006 -1.77628e-006 -0.4882 -2.341 -0.6462 -0.0126144 0.00313494 0.00283802 -0.3575 -1.7167 -0.4742 -3.18055e-015 3.18055e-015 -1.59028e-015 -1.42 -1.8761 1.4223 -4.29115e-006 1.35541e-006 -1.77628e-006 -1.1471 -3.4929 2.6334 3.18055e-015 9.54166e-015 -1.59028e-015 -0.823 -2.3 1.6571 3.18055e-015 0 -1.59028e-015 -2.2603 21.606 7.4023 -11.5395 6.6388 51.2192 -13.5187 -1.1334 -5.0155 -82.8585 -15.5382 -38.8362 0.0994 -28.0499 -0.2431 -11.037 -29.9839 -2.54941 -0.0679 -23.3996 -0.1402 -38.5617 -12.0409 -10.6866 -0.7932 -9.0691 2.5189 -1.16799e-005 5.10818e-007 -5.66597e-006 0.8272 -3.3923 0.5977 3.18055e-015 -3.18055e-015 6.36111e-015 0.565 -2.3158 0.4082 1.03471e-006 -4.51232e-006 5.19069e-006 -0.916 -9.2044 0.2193 -1.16799e-005 5.10818e-007 -5.66597e-006 -0.0117 -4.1944 -0.0248 0.0129857 0.00230774 -8.14423e-005 -0.0071 -2.3249 -0.0142 6.36111e-015 0 -1.59028e-015 -0.6113 -8.7231 -2.0637 -1.16799e-005 5.10818e-007 -5.66597e-006 0.1927 -3.8059 -0.2383 0.0163423 0.00301301 -0.000866279 0.1091 -2.1688 -0.1362 -3.18055e-015 0 1.59028e-015 0.6151 -8.0947 -3.564 -1.16799e-005 5.10818e-007 -5.66597e-006 0.4882 -2.341 -0.6462 0.014587 0.00366452 -0.00325188 0.3574 -1.7166 -0.4742 -3.95081e-007 8.02588e-006 -1.30084e-005 1.4199 -1.8761 1.4221 -1.16799e-005 5.10818e-007 -5.66597e-006 1.1472 -3.4929 2.6336 3.18055e-015 -3.18055e-015 6.36111e-015 0.8229 -2.3 1.6571 1.03471e-006 -4.51232e-006 5.19069e-006 -9.412 3.9771 -0.7758 -165.403 -76.2825 -164.288 -0.7531 -40.938 -7.10543e-015 4.84729 7.69444 -1.53828 1.77636e-015 -40.1986 0 -6.12602 31.7824 -3.33348 0 -4.4182 9.239 1.59028e-015 6.36111e-015 -1.19271e-015 9.4119 3.9773 -0.7758 164.881 -75.4123 165.61 0.7532 -40.9383 7.10543e-015 -5.77005 9.67112 1.69304 0 -40.1986 7.10543e-015 6.55667 32.2925 2.87435 8.88179e-016 -4.4182 9.239 1.19271e-015 6.36111e-015 3.97569e-016 
